<?xml version="1.0" encoding="UTF-8" standalone="no"?>
<!-- Created with Inkscape (http://www.inkscape.org/) -->

<svg
   version="1.1"
   id="svg210"
   width="564.58789"
   height="76.762695"
   viewBox="0 0 564.58788 76.762694"
   sodipodi:docname="مguid ogo (2).pdf"
   xmlns:inkscape="http://www.inkscape.org/namespaces/inkscape"
   xmlns:sodipodi="http://sodipodi.sourceforge.net/DTD/sodipodi-0.dtd"
   xmlns="http://www.w3.org/2000/svg"
   xmlns:svg="http://www.w3.org/2000/svg">
  <defs
     id="defs214">
    <clipPath
       clipPathUnits="userSpaceOnUse"
       id="clipPath1212">
      <path
         d="m 561.527,230.117 c -1.737,0 -3.321,-0.325 -4.753,-0.976 v 0 c -1.433,-0.65 -2.669,-1.528 -3.711,-2.632 v 0 c -1.042,-1.107 -1.845,-2.43 -2.409,-3.968 v 0 c -0.565,-1.538 -0.847,-3.175 -0.847,-4.908 v 0 -5.917 c 0,-1.733 0.294,-3.24 0.88,-4.519 v 0 c 0.585,-1.278 1.345,-2.416 2.278,-3.414 v 0 c 0.933,-0.996 1.986,-1.863 3.158,-2.6 v 0 c 1.172,-0.736 2.344,-1.431 3.515,-2.08 v 0 c 2.301,-1.258 4.081,-2.471 5.34,-3.642 v 0 c 1.258,-1.171 1.929,-2.471 2.018,-3.9 v 0 -4.876 c 0,-1.258 -0.316,-2.353 -0.945,-3.284 v 0 c -0.629,-0.932 -1.639,-1.398 -3.026,-1.398 v 0 h -1.433 c -1.347,0 -2.344,0.445 -2.995,1.334 v 0 c -0.651,0.889 -0.977,2.007 -0.977,3.354 v 0 4.818 h -7.813 v -4.818 c 0,-1.432 0.229,-2.89 0.683,-4.371 v 0 c 0.458,-1.48 1.118,-2.824 1.987,-4.026 v 0 c 0.867,-1.204 1.942,-2.19 3.223,-2.956 v 0 c 1.279,-0.766 2.767,-1.148 4.459,-1.148 v 0 h 4.298 c 1.561,0 2.983,0.359 4.264,1.075 v 0 c 1.28,0.716 2.376,1.66 3.288,2.831 v 0 c 0.912,1.172 1.606,2.507 2.084,4.005 v 0 c 0.477,1.498 0.715,3.005 0.715,4.525 v 0 5.403 c 0,1.824 -0.357,3.429 -1.073,4.818 v 0 c -0.717,1.389 -1.607,2.637 -2.671,3.743 v 0 c -1.063,1.107 -2.246,2.073 -3.547,2.898 v 0 c -1.303,0.824 -2.562,1.606 -3.776,2.344 v 0 c -0.739,0.433 -1.477,0.856 -2.214,1.269 v 0 c -0.739,0.412 -1.399,0.889 -1.986,1.433 v 0 c -0.586,0.543 -1.052,1.171 -1.4,1.888 v 0 c -0.348,0.716 -0.521,1.616 -0.521,2.702 v 0 4.492 c 0,1.129 0.261,2.159 0.781,3.093 v 0 c 0.521,0.932 1.455,1.465 2.8,1.595 v 0 h 2.149 c 1.258,-0.088 2.18,-0.575 2.767,-1.465 v 0 c 0.586,-0.89 0.879,-1.965 0.879,-3.223 v 0 -5.209 h 7.812 v 5.209 c 0,1.605 -0.25,3.167 -0.748,4.688 v 0 c -0.5,1.519 -1.237,2.854 -2.214,4.005 v 0 c -0.977,1.148 -2.16,2.071 -3.548,2.766 v 0 c -1.391,0.693 -2.952,1.042 -4.688,1.042 v 0 z"
         id="path1210" />
    </clipPath>
    <linearGradient
       x1="0"
       y1="0"
       x2="1"
       y2="0"
       gradientUnits="userSpaceOnUse"
       gradientTransform="matrix(732.00513,105.9853,105.9853,-732.00513,405.43176,179.35843)"
       spreadMethod="pad"
       id="linearGradient1226">
      <stop
         style="stop-opacity:1;stop-color:#f8e348"
         offset="0"
         id="stop1218" />
      <stop
         style="stop-opacity:1;stop-color:#f8e348"
         offset="0.450066"
         id="stop1220" />
      <stop
         style="stop-opacity:1;stop-color:#f8e348"
         offset="0.72905"
         id="stop1222" />
      <stop
         style="stop-opacity:1;stop-color:#f8e348"
         offset="1"
         id="stop1224" />
    </linearGradient>
    <clipPath
       clipPathUnits="userSpaceOnUse"
       id="clipPath1236">
      <path
         d="m 599.158,229.792 v -26.955 h -9.766 v 26.955 h -7.814 v -55.341 h 7.814 v 20.573 h 9.766 v -20.573 h 7.812 v 55.341 z"
         id="path1234" />
    </clipPath>
    <linearGradient
       x1="0"
       y1="0"
       x2="1"
       y2="0"
       gradientUnits="userSpaceOnUse"
       gradientTransform="matrix(732.00513,105.9853,105.9853,-732.00513,406.08121,174.87291)"
       spreadMethod="pad"
       id="linearGradient1250">
      <stop
         style="stop-opacity:1;stop-color:#f8e348"
         offset="0"
         id="stop1242" />
      <stop
         style="stop-opacity:1;stop-color:#f8e348"
         offset="0.450066"
         id="stop1244" />
      <stop
         style="stop-opacity:1;stop-color:#f8e348"
         offset="0.72905"
         id="stop1246" />
      <stop
         style="stop-opacity:1;stop-color:#f8e348"
         offset="1"
         id="stop1248" />
    </linearGradient>
    <clipPath
       clipPathUnits="userSpaceOnUse"
       id="clipPath1260">
      <path
         d="m 652.014,231.049 c -1.515,0 -2.949,-0.303 -4.305,-0.909 v 0 l 0.031,-0.048 c -0.414,-0.143 -0.812,-0.335 -1.195,-0.542 v 0 c -0.685,-0.382 -1.308,-0.829 -1.882,-1.34 v 0 c -0.51,-0.446 -0.957,-0.94 -1.371,-1.498 v 0 c -0.893,-1.164 -1.562,-2.488 -1.993,-3.971 v 0 c -0.431,-1.466 -0.654,-2.981 -0.654,-4.543 v 0 -30.998 c 0,-1.739 0.303,-3.365 0.878,-4.88 v 0 c 0.589,-1.531 1.387,-2.854 2.406,-3.97 v 0 c 1.021,-1.132 2.248,-2.025 3.684,-2.678 v 0 c 0.176,-0.08 0.351,-0.16 0.526,-0.208 v 0 h 0.017 c 1.275,-0.526 2.662,-0.765 4.145,-0.765 v 0 h 3.189 c 1.514,0 2.949,0.302 4.304,0.908 v 0 l -0.03,0.049 c 0.414,0.143 0.813,0.334 1.195,0.541 v 0 c 0.686,0.383 1.308,0.83 1.882,1.341 v 0 c 0.509,0.445 0.973,0.94 1.387,1.482 v 0 c 0.876,1.18 1.546,2.504 1.977,3.971 v 0 c 0.43,1.482 0.654,2.997 0.654,4.559 v 0 30.998 c 0,1.738 -0.287,3.364 -0.877,4.88 v 0 c -0.59,1.514 -1.387,2.837 -2.408,3.97 v 0 c -1.02,1.132 -2.248,2.025 -3.683,2.663 v 0 c -0.112,0.047 -0.207,0.095 -0.319,0.127 v 0 c -0.112,0.063 -0.239,0.096 -0.352,0.127 v 0 c -1.243,0.494 -2.583,0.734 -4.017,0.734 v 0 z m -2.71,-46.783 c -0.272,0.399 -0.496,0.845 -0.639,1.324 v 0 c -0.015,0 -0.015,0.015 -0.015,0.031 v 0 c -0.128,0.494 -0.192,1.021 -0.192,1.579 v 0 30.998 c 0,1.339 0.335,2.455 0.973,3.348 v 0 c 0.654,0.893 1.658,1.339 2.998,1.339 v 0 h 2.742 c 1.388,0 2.391,-0.478 3.03,-1.403 v 0 c 0.303,-0.463 0.525,-0.957 0.685,-1.483 v 0 c 0.112,-0.462 0.16,-0.957 0.16,-1.451 v 0 -30.998 c 0,-1.339 -0.32,-2.455 -0.973,-3.348 v 0 c -0.655,-0.893 -1.658,-1.339 -2.998,-1.339 v 0 h -2.742 c -1.387,0 -2.392,0.463 -3.029,1.403"
         id="path1258" />
    </clipPath>
    <linearGradient
       x1="0"
       y1="0"
       x2="1"
       y2="0"
       gradientUnits="userSpaceOnUse"
       gradientTransform="matrix(732.00513,105.9853,105.9853,-732.00513,407.19568,167.17558)"
       spreadMethod="pad"
       id="linearGradient1274">
      <stop
         style="stop-opacity:1;stop-color:#f8e348"
         offset="0"
         id="stop1266" />
      <stop
         style="stop-opacity:1;stop-color:#f8e348"
         offset="0.450066"
         id="stop1268" />
      <stop
         style="stop-opacity:1;stop-color:#f8e348"
         offset="0.72905"
         id="stop1270" />
      <stop
         style="stop-opacity:1;stop-color:#f8e348"
         offset="1"
         id="stop1272" />
    </linearGradient>
    <clipPath
       clipPathUnits="userSpaceOnUse"
       id="clipPath1284">
      <path
         d="m 623.025,230.476 c -1.515,0 -2.948,-0.304 -4.305,-0.91 v 0 l 0.032,-0.048 c -0.414,-0.143 -0.813,-0.335 -1.195,-0.542 v 0 c -0.686,-0.382 -1.308,-0.829 -1.882,-1.339 v 0 c -0.51,-0.447 -0.957,-0.941 -1.371,-1.499 v 0 c -0.893,-1.164 -1.562,-2.487 -1.994,-3.97 v 0 c -0.43,-1.467 -0.653,-2.982 -0.653,-4.544 v 0 -30.998 c 0,-1.738 0.302,-3.364 0.878,-4.879 v 0 c 0.589,-1.531 1.386,-2.855 2.406,-3.971 v 0 c 1.021,-1.132 2.248,-2.025 3.684,-2.678 v 0 c 0.174,-0.08 0.351,-0.16 0.526,-0.207 v 0 h 0.016 c 1.275,-0.527 2.663,-0.766 4.145,-0.766 v 0 h 3.19 c 1.514,0 2.949,0.303 4.304,0.909 v 0 l -0.03,0.047 c 0.414,0.144 0.812,0.335 1.195,0.542 v 0 c 0.685,0.384 1.308,0.83 1.882,1.34 v 0 c 0.509,0.446 0.972,0.941 1.386,1.483 v 0 c 0.877,1.18 1.547,2.503 1.978,3.971 v 0 c 0.43,1.482 0.654,2.997 0.654,4.56 v 0 30.997 c 0,1.738 -0.287,3.365 -0.878,4.88 v 0 c -0.589,1.514 -1.387,2.837 -2.407,3.969 v 0 c -1.02,1.133 -2.248,2.025 -3.683,2.663 v 0 c -0.112,0.048 -0.207,0.096 -0.319,0.128 v 0 c -0.112,0.064 -0.239,0.096 -0.352,0.127 v 0 c -1.243,0.495 -2.583,0.735 -4.017,0.735 v 0 z m -2.71,-46.784 c -0.271,0.398 -0.495,0.845 -0.638,1.324 v 0 c -0.016,0 -0.016,0.015 -0.016,0.031 v 0 c -0.128,0.494 -0.191,1.021 -0.191,1.579 v 0 30.998 c 0,1.339 0.335,2.455 0.972,3.348 v 0 c 0.654,0.892 1.659,1.339 2.999,1.339 v 0 h 2.741 c 1.388,0 2.392,-0.478 3.03,-1.403 v 0 c 0.304,-0.463 0.526,-0.957 0.686,-1.484 v 0 c 0.112,-0.461 0.16,-0.955 0.16,-1.45 v 0 -30.997 c 0,-1.339 -0.32,-2.456 -0.973,-3.349 v 0 c -0.655,-0.893 -1.658,-1.339 -2.998,-1.339 v 0 h -2.743 c -1.387,0 -2.391,0.462 -3.029,1.403"
         id="path1282" />
    </clipPath>
    <linearGradient
       x1="0"
       y1="0"
       x2="1"
       y2="0"
       gradientUnits="userSpaceOnUse"
       gradientTransform="matrix(732.00513,105.9853,105.9853,-732.00513,406.68188,170.72432)"
       spreadMethod="pad"
       id="linearGradient1298">
      <stop
         style="stop-opacity:1;stop-color:#f8e348"
         offset="0"
         id="stop1290" />
      <stop
         style="stop-opacity:1;stop-color:#f8e348"
         offset="0.450066"
         id="stop1292" />
      <stop
         style="stop-opacity:1;stop-color:#f8e348"
         offset="0.72905"
         id="stop1294" />
      <stop
         style="stop-opacity:1;stop-color:#f8e348"
         offset="1"
         id="stop1296" />
    </linearGradient>
    <clipPath
       clipPathUnits="userSpaceOnUse"
       id="clipPath1308">
      <path
         d="m 669.178,229.792 v -7.814 h 9.178 v -47.527 h 7.814 v 47.527 h 9.245 v 7.814 z"
         id="path1306" />
    </clipPath>
    <linearGradient
       x1="0"
       y1="0"
       x2="1"
       y2="0"
       gradientUnits="userSpaceOnUse"
       gradientTransform="matrix(732.00513,105.9853,105.9853,-732.00513,407.79364,163.04568)"
       spreadMethod="pad"
       id="linearGradient1322">
      <stop
         style="stop-opacity:1;stop-color:#f8e348"
         offset="0"
         id="stop1314" />
      <stop
         style="stop-opacity:1;stop-color:#f8e348"
         offset="0.450066"
         id="stop1316" />
      <stop
         style="stop-opacity:1;stop-color:#f8e348"
         offset="0.72905"
         id="stop1318" />
      <stop
         style="stop-opacity:1;stop-color:#f8e348"
         offset="1"
         id="stop1320" />
    </linearGradient>
    <clipPath
       clipPathUnits="userSpaceOnUse"
       id="clipPath1332">
      <path
         d="m 700.622,229.792 v -55.341 h 20.053 v 7.812 h -12.239 v 15.691 h 12.239 v 7.812 h -12.239 v 16.212 h 12.239 v 7.814 z"
         id="path1330" />
    </clipPath>
    <linearGradient
       x1="0"
       y1="0"
       x2="1"
       y2="0"
       gradientUnits="userSpaceOnUse"
       gradientTransform="matrix(732.00513,105.9853,105.9853,-732.00513,408.47073,158.36931)"
       spreadMethod="pad"
       id="linearGradient1346">
      <stop
         style="stop-opacity:1;stop-color:#f8e348"
         offset="0"
         id="stop1338" />
      <stop
         style="stop-opacity:1;stop-color:#f8e348"
         offset="0.450066"
         id="stop1340" />
      <stop
         style="stop-opacity:1;stop-color:#f8e348"
         offset="0.72905"
         id="stop1342" />
      <stop
         style="stop-opacity:1;stop-color:#f8e348"
         offset="1"
         id="stop1344" />
    </linearGradient>
    <clipPath
       clipPathUnits="userSpaceOnUse"
       id="clipPath1356">
      <path
         d="m 727.446,229.792 v -55.341 h 7.813 v 18.88 h 4.883 0.455 l 4.949,-18.88 h 7.812 l -5.664,21.614 c 1.345,1.173 2.386,2.606 3.126,4.298 v 0 c 0.737,1.692 1.107,3.516 1.107,5.469 v 0 11.459 c 0,1.648 -0.273,3.232 -0.815,4.753 v 0 c -0.543,1.519 -1.325,2.853 -2.344,4.004 v 0 c -1.02,1.15 -2.257,2.06 -3.711,2.735 v 0 c -1.455,0.671 -3.093,1.009 -4.915,1.009 v 0 z m 7.813,-7.814 h 4.883 c 1.389,0 2.398,-0.446 3.027,-1.335 v 0 c 0.629,-0.889 0.945,-2.007 0.945,-3.352 v 0 -11.459 c 0,-1.346 -0.316,-2.464 -0.945,-3.353 v 0 c -0.629,-0.891 -1.638,-1.334 -3.027,-1.334 v 0 h -4.883 z"
         id="path1354" />
    </clipPath>
    <linearGradient
       x1="0"
       y1="0"
       x2="1"
       y2="0"
       gradientUnits="userSpaceOnUse"
       gradientTransform="matrix(732.00513,105.9853,105.9853,-732.00513,409.08166,154.14987)"
       spreadMethod="pad"
       id="linearGradient1370">
      <stop
         style="stop-opacity:1;stop-color:#f8e348"
         offset="0"
         id="stop1362" />
      <stop
         style="stop-opacity:1;stop-color:#f8e348"
         offset="0.450066"
         id="stop1364" />
      <stop
         style="stop-opacity:1;stop-color:#f8e348"
         offset="0.72905"
         id="stop1366" />
      <stop
         style="stop-opacity:1;stop-color:#f8e348"
         offset="1"
         id="stop1368" />
    </linearGradient>
    <clipPath
       clipPathUnits="userSpaceOnUse"
       id="clipPath1380">
      <path
         d="m 770.416,230.117 c -1.738,0 -3.32,-0.325 -4.753,-0.976 v 0 c -1.433,-0.65 -2.669,-1.528 -3.711,-2.632 v 0 c -1.042,-1.107 -1.845,-2.43 -2.41,-3.968 v 0 c -0.565,-1.538 -0.846,-3.175 -0.846,-4.908 v 0 -5.917 c 0,-1.733 0.293,-3.24 0.879,-4.519 v 0 c 0.586,-1.278 1.345,-2.416 2.279,-3.414 v 0 c 0.933,-0.996 1.986,-1.863 3.158,-2.6 v 0 c 1.171,-0.736 2.343,-1.431 3.515,-2.08 v 0 c 2.301,-1.258 4.08,-2.471 5.339,-3.642 v 0 c 1.259,-1.171 1.931,-2.471 2.019,-3.9 v 0 -4.876 c 0,-1.258 -0.315,-2.353 -0.945,-3.284 v 0 c -0.629,-0.932 -1.639,-1.398 -3.027,-1.398 v 0 h -1.433 c -1.345,0 -2.344,0.445 -2.995,1.334 v 0 c -0.651,0.889 -0.977,2.007 -0.977,3.354 v 0 4.818 h -7.812 v -4.818 c 0,-1.432 0.228,-2.89 0.684,-4.371 v 0 c 0.456,-1.48 1.117,-2.824 1.986,-4.026 v 0 c 0.867,-1.204 1.942,-2.19 3.222,-2.956 v 0 c 1.28,-0.766 2.767,-1.148 4.46,-1.148 v 0 h 4.298 c 1.561,0 2.983,0.359 4.264,1.075 v 0 c 1.28,0.716 2.376,1.66 3.288,2.831 v 0 c 0.911,1.172 1.605,2.507 2.083,4.005 v 0 c 0.478,1.498 0.717,3.005 0.717,4.525 v 0 5.403 c 0,1.824 -0.358,3.429 -1.075,4.818 v 0 c -0.716,1.389 -1.607,2.637 -2.67,3.743 v 0 c -1.063,1.107 -2.246,2.073 -3.547,2.898 v 0 c -1.304,0.824 -2.563,1.606 -3.777,2.344 v 0 c -0.739,0.433 -1.476,0.856 -2.213,1.269 v 0 c -0.74,0.412 -1.4,0.889 -1.986,1.433 v 0 c -0.586,0.543 -1.053,1.171 -1.4,1.888 v 0 c -0.349,0.716 -0.522,1.616 -0.522,2.702 v 0 4.492 c 0,1.129 0.261,2.159 0.783,3.093 v 0 c 0.521,0.932 1.453,1.465 2.798,1.595 v 0 h 2.15 c 1.258,-0.088 2.18,-0.575 2.767,-1.465 v 0 c 0.586,-0.89 0.879,-1.965 0.879,-3.223 v 0 -5.209 h 7.813 v 5.209 c 0,1.605 -0.251,3.167 -0.75,4.688 v 0 c -0.5,1.519 -1.237,2.854 -2.212,4.005 v 0 c -0.978,1.148 -2.16,2.071 -3.549,2.766 v 0 c -1.39,0.693 -2.953,1.042 -4.688,1.042 v 0 z"
         id="path1378" />
    </clipPath>
    <linearGradient
       x1="0"
       y1="0"
       x2="1"
       y2="0"
       gradientUnits="userSpaceOnUse"
       gradientTransform="matrix(732.00513,105.9853,105.9853,-732.00513,409.72089,149.73494)"
       spreadMethod="pad"
       id="linearGradient1394">
      <stop
         style="stop-opacity:1;stop-color:#f8e348"
         offset="0"
         id="stop1386" />
      <stop
         style="stop-opacity:1;stop-color:#f8e348"
         offset="0.450066"
         id="stop1388" />
      <stop
         style="stop-opacity:1;stop-color:#f8e348"
         offset="0.72905"
         id="stop1390" />
      <stop
         style="stop-opacity:1;stop-color:#f8e348"
         offset="1"
         id="stop1392" />
    </linearGradient>
    <clipPath
       clipPathUnits="userSpaceOnUse"
       id="clipPath1404">
      <path
         d="m 360.257,229.078 v -55.34 h 12.697 c 1.734,0 3.32,0.325 4.752,0.975 v 0 c 1.432,0.651 2.668,1.531 3.712,2.638 v 0 c 1.04,1.106 1.856,2.419 2.442,3.938 v 0 c 0.585,1.52 0.877,3.169 0.877,4.949 v 0 30.339 c 0,1.65 -0.271,3.234 -0.812,4.753 v 0 c -0.545,1.52 -1.327,2.855 -2.345,4.005 v 0 c -1.021,1.149 -2.258,2.06 -3.712,2.734 v 0 c -1.455,0.671 -3.093,1.009 -4.914,1.009 v 0 z m 7.813,-7.814 h 4.884 c 1.388,0 2.397,-0.445 3.026,-1.335 v 0 c 0.629,-0.889 0.944,-2.006 0.944,-3.352 v 0 -30.339 c 0,-1.26 -0.315,-2.356 -0.944,-3.289 v 0 c -0.629,-0.932 -1.638,-1.399 -3.026,-1.399 v 0 h -4.884 z"
         id="path1402" />
    </clipPath>
    <linearGradient
       x1="0"
       y1="0"
       x2="1"
       y2="0"
       gradientUnits="userSpaceOnUse"
       gradientTransform="matrix(732.00513,105.9853,105.9853,-732.00513,401.5173,206.39442)"
       spreadMethod="pad"
       id="linearGradient1418">
      <stop
         style="stop-opacity:1;stop-color:#f8e348"
         offset="0"
         id="stop1410" />
      <stop
         style="stop-opacity:1;stop-color:#f8e348"
         offset="0.450066"
         id="stop1412" />
      <stop
         style="stop-opacity:1;stop-color:#f8e348"
         offset="0.72905"
         id="stop1414" />
      <stop
         style="stop-opacity:1;stop-color:#f8e348"
         offset="1"
         id="stop1416" />
    </linearGradient>
    <clipPath
       clipPathUnits="userSpaceOnUse"
       id="clipPath1428">
      <path
         d="m 391.378,229.078 v -55.34 h 20.052 v 7.812 h -12.239 v 15.69 h 12.239 v 7.813 h -12.239 v 16.211 h 12.239 v 7.814 z"
         id="path1426" />
    </clipPath>
    <linearGradient
       x1="0"
       y1="0"
       x2="1"
       y2="0"
       gradientUnits="userSpaceOnUse"
       gradientTransform="matrix(732.00513,105.9853,105.9853,-732.00513,402.22214,201.5262)"
       spreadMethod="pad"
       id="linearGradient1442">
      <stop
         style="stop-opacity:1;stop-color:#f8e348"
         offset="0"
         id="stop1434" />
      <stop
         style="stop-opacity:1;stop-color:#f8e348"
         offset="0.450066"
         id="stop1436" />
      <stop
         style="stop-opacity:1;stop-color:#f8e348"
         offset="0.72905"
         id="stop1438" />
      <stop
         style="stop-opacity:1;stop-color:#f8e348"
         offset="1"
         id="stop1440" />
    </linearGradient>
    <clipPath
       clipPathUnits="userSpaceOnUse"
       id="clipPath1452">
      <path
         d="m 429.269,229.404 c -1.737,0 -3.32,-0.326 -4.752,-0.977 v 0 c -1.433,-0.649 -2.669,-1.527 -3.711,-2.631 v 0 c -1.042,-1.107 -1.845,-2.429 -2.409,-3.968 v 0 c -0.565,-1.539 -0.847,-3.175 -0.847,-4.908 v 0 -5.917 c 0,-1.733 0.293,-3.241 0.88,-4.519 v 0 c 0.585,-1.279 1.343,-2.416 2.278,-3.413 v 0 c 0.933,-0.997 1.985,-1.864 3.158,-2.6 v 0 c 1.172,-0.737 2.343,-1.432 3.516,-2.081 v 0 c 2.3,-1.258 4.078,-2.472 5.338,-3.643 v 0 c 1.258,-1.171 1.93,-2.47 2.018,-3.899 v 0 -4.877 c 0,-1.258 -0.314,-2.352 -0.944,-3.284 v 0 c -0.629,-0.932 -1.637,-1.398 -3.027,-1.398 v 0 h -1.433 c -1.344,0 -2.343,0.446 -2.994,1.334 v 0 c -0.651,0.89 -0.977,2.008 -0.977,3.355 v 0 4.818 h -7.813 v -4.818 c 0,-1.432 0.229,-2.89 0.684,-4.371 v 0 c 0.456,-1.481 1.117,-2.825 1.985,-4.027 v 0 c 0.868,-1.203 1.943,-2.189 3.224,-2.956 v 0 c 1.28,-0.766 2.766,-1.147 4.458,-1.147 v 0 h 4.299 c 1.561,0 2.983,0.359 4.263,1.075 v 0 c 1.28,0.716 2.378,1.66 3.289,2.831 v 0 c 0.911,1.172 1.605,2.507 2.083,4.004 v 0 c 0.476,1.498 0.717,3.006 0.717,4.526 v 0 5.403 c 0,1.823 -0.359,3.429 -1.075,4.818 v 0 c -0.716,1.389 -1.607,2.637 -2.668,3.743 v 0 c -1.066,1.107 -2.248,2.073 -3.55,2.898 v 0 c -1.302,0.824 -2.561,1.605 -3.776,2.343 v 0 c -0.738,0.433 -1.476,0.857 -2.214,1.269 v 0 c -0.738,0.413 -1.4,0.889 -1.985,1.433 v 0 c -0.586,0.543 -1.053,1.173 -1.4,1.889 v 0 c -0.348,0.715 -0.521,1.616 -0.521,2.702 v 0 4.492 c 0,1.129 0.261,2.158 0.781,3.092 v 0 c 0.522,0.933 1.454,1.465 2.8,1.595 v 0 h 2.148 c 1.259,-0.087 2.181,-0.574 2.767,-1.464 v 0 c 0.585,-0.89 0.879,-1.965 0.879,-3.223 v 0 -5.209 h 7.814 v 5.209 c 0,1.605 -0.251,3.167 -0.749,4.687 v 0 c -0.501,1.519 -1.237,2.854 -2.214,4.005 v 0 c -0.978,1.149 -2.16,2.073 -3.548,2.766 v 0 c -1.391,0.694 -2.952,1.043 -4.688,1.043 v 0 z"
         id="path1450" />
    </clipPath>
    <linearGradient
       x1="0"
       y1="0"
       x2="1"
       y2="0"
       gradientUnits="userSpaceOnUse"
       gradientTransform="matrix(732.00513,105.9853,105.9853,-732.00513,402.81726,197.41591)"
       spreadMethod="pad"
       id="linearGradient1466">
      <stop
         style="stop-opacity:1;stop-color:#f8e348"
         offset="0"
         id="stop1458" />
      <stop
         style="stop-opacity:1;stop-color:#f8e348"
         offset="0.450066"
         id="stop1460" />
      <stop
         style="stop-opacity:1;stop-color:#f8e348"
         offset="0.72905"
         id="stop1462" />
      <stop
         style="stop-opacity:1;stop-color:#f8e348"
         offset="1"
         id="stop1464" />
    </linearGradient>
    <clipPath
       clipPathUnits="userSpaceOnUse"
       id="clipPath1476">
      <path
         d="m 448.671,229.078 v -55.34 h 20.053 v 7.812 h -12.24 v 15.69 h 12.24 v 7.813 h -12.24 v 16.211 h 12.24 v 7.814 z"
         id="path1474" />
    </clipPath>
    <linearGradient
       x1="0"
       y1="0"
       x2="1"
       y2="0"
       gradientUnits="userSpaceOnUse"
       gradientTransform="matrix(732.00513,105.9853,105.9853,-732.00513,403.39856,193.40112)"
       spreadMethod="pad"
       id="linearGradient1490">
      <stop
         style="stop-opacity:1;stop-color:#f8e348"
         offset="0"
         id="stop1482" />
      <stop
         style="stop-opacity:1;stop-color:#f8e348"
         offset="0.450066"
         id="stop1484" />
      <stop
         style="stop-opacity:1;stop-color:#f8e348"
         offset="0.72905"
         id="stop1486" />
      <stop
         style="stop-opacity:1;stop-color:#f8e348"
         offset="1"
         id="stop1488" />
    </linearGradient>
    <clipPath
       clipPathUnits="userSpaceOnUse"
       id="clipPath1500">
      <path
         d="m 475.493,229.078 v -55.34 h 7.813 v 18.88 h 4.883 0.455 l 4.949,-18.88 h 7.812 l -5.663,21.614 c 1.344,1.173 2.386,2.605 3.125,4.298 v 0 c 0.737,1.693 1.106,3.516 1.106,5.468 v 0 11.459 c 0,1.65 -0.271,3.234 -0.813,4.753 v 0 c -0.543,1.52 -1.325,2.855 -2.345,4.005 v 0 c -1.02,1.149 -2.256,2.06 -3.71,2.734 v 0 c -1.455,0.671 -3.094,1.009 -4.916,1.009 v 0 z m 7.813,-7.814 h 4.883 c 1.388,0 2.397,-0.445 3.027,-1.335 v 0 c 0.629,-0.889 0.944,-2.006 0.944,-3.352 v 0 -11.459 c 0,-1.345 -0.315,-2.463 -0.944,-3.352 v 0 c -0.63,-0.89 -1.639,-1.335 -3.027,-1.335 v 0 h -4.883 z"
         id="path1498" />
    </clipPath>
    <linearGradient
       x1="0"
       y1="0"
       x2="1"
       y2="0"
       gradientUnits="userSpaceOnUse"
       gradientTransform="matrix(732.00513,105.9853,105.9853,-732.00513,404.00946,189.1819)"
       spreadMethod="pad"
       id="linearGradient1514">
      <stop
         style="stop-opacity:1;stop-color:#f8e348"
         offset="0"
         id="stop1506" />
      <stop
         style="stop-opacity:1;stop-color:#f8e348"
         offset="0.450066"
         id="stop1508" />
      <stop
         style="stop-opacity:1;stop-color:#f8e348"
         offset="0.72905"
         id="stop1510" />
      <stop
         style="stop-opacity:1;stop-color:#f8e348"
         offset="1"
         id="stop1512" />
    </linearGradient>
    <clipPath
       clipPathUnits="userSpaceOnUse"
       id="clipPath1524">
      <path
         d="m 505.834,229.078 v -7.814 h 9.179 v -47.526 h 7.814 v 47.526 h 9.245 v 7.814 z"
         id="path1522" />
    </clipPath>
    <linearGradient
       x1="0"
       y1="0"
       x2="1"
       y2="0"
       gradientUnits="userSpaceOnUse"
       gradientTransform="matrix(732.00513,105.9853,105.9853,-732.00513,404.54086,185.51155)"
       spreadMethod="pad"
       id="linearGradient1538">
      <stop
         style="stop-opacity:1;stop-color:#f8e348"
         offset="0"
         id="stop1530" />
      <stop
         style="stop-opacity:1;stop-color:#f8e348"
         offset="0.450066"
         id="stop1532" />
      <stop
         style="stop-opacity:1;stop-color:#f8e348"
         offset="0.72905"
         id="stop1534" />
      <stop
         style="stop-opacity:1;stop-color:#f8e348"
         offset="1"
         id="stop1536" />
    </linearGradient>
  </defs>
  <sodipodi:namedview
     id="namedview212"
     pagecolor="#ffffff"
     bordercolor="#000000"
     borderopacity="0.25"
     inkscape:showpageshadow="2"
     inkscape:pageopacity="0.0"
     inkscape:pagecheckerboard="0"
     inkscape:deskcolor="#d1d1d1"
     showgrid="false" />
  <g
     id="g810"
     inkscape:groupmode="layer"
     inkscape:label="Page 2"
     transform="matrix(1.3333333,0,0,-1.3333333,-480.34271,308.06533)">
    <g
       id="g11897">
      <g
         id="g1206">
        <g
           id="g1208"
           clip-path="url(#clipPath1212)">
          <g
             id="g1214">
            <g
               id="g1216">
              <path
                 d="m 561.527,230.117 c -1.737,0 -3.321,-0.325 -4.753,-0.976 v 0 c -1.433,-0.65 -2.669,-1.528 -3.711,-2.632 v 0 c -1.042,-1.107 -1.845,-2.43 -2.409,-3.968 v 0 c -0.565,-1.538 -0.847,-3.175 -0.847,-4.908 v 0 -5.917 c 0,-1.733 0.294,-3.24 0.88,-4.519 v 0 c 0.585,-1.278 1.345,-2.416 2.278,-3.414 v 0 c 0.933,-0.996 1.986,-1.863 3.158,-2.6 v 0 c 1.172,-0.736 2.344,-1.431 3.515,-2.08 v 0 c 2.301,-1.258 4.081,-2.471 5.34,-3.642 v 0 c 1.258,-1.171 1.929,-2.471 2.018,-3.9 v 0 -4.876 c 0,-1.258 -0.316,-2.353 -0.945,-3.284 v 0 c -0.629,-0.932 -1.639,-1.398 -3.026,-1.398 v 0 h -1.433 c -1.347,0 -2.344,0.445 -2.995,1.334 v 0 c -0.651,0.889 -0.977,2.007 -0.977,3.354 v 0 4.818 h -7.813 v -4.818 c 0,-1.432 0.229,-2.89 0.683,-4.371 v 0 c 0.458,-1.48 1.118,-2.824 1.987,-4.026 v 0 c 0.867,-1.204 1.942,-2.19 3.223,-2.956 v 0 c 1.279,-0.766 2.767,-1.148 4.459,-1.148 v 0 h 4.298 c 1.561,0 2.983,0.359 4.264,1.075 v 0 c 1.28,0.716 2.376,1.66 3.288,2.831 v 0 c 0.912,1.172 1.606,2.507 2.084,4.005 v 0 c 0.477,1.498 0.715,3.005 0.715,4.525 v 0 5.403 c 0,1.824 -0.357,3.429 -1.073,4.818 v 0 c -0.717,1.389 -1.607,2.637 -2.671,3.743 v 0 c -1.063,1.107 -2.246,2.073 -3.547,2.898 v 0 c -1.303,0.824 -2.562,1.606 -3.776,2.344 v 0 c -0.739,0.433 -1.477,0.856 -2.214,1.269 v 0 c -0.739,0.412 -1.399,0.889 -1.986,1.433 v 0 c -0.586,0.543 -1.052,1.171 -1.4,1.888 v 0 c -0.348,0.716 -0.521,1.616 -0.521,2.702 v 0 4.492 c 0,1.129 0.261,2.159 0.781,3.093 v 0 c 0.521,0.932 1.455,1.465 2.8,1.595 v 0 h 2.149 c 1.258,-0.088 2.18,-0.575 2.767,-1.465 v 0 c 0.586,-0.89 0.879,-1.965 0.879,-3.223 v 0 -5.209 h 7.812 v 5.209 c 0,1.605 -0.25,3.167 -0.748,4.688 v 0 c -0.5,1.519 -1.237,2.854 -2.214,4.005 v 0 c -0.977,1.148 -2.16,2.071 -3.548,2.766 v 0 c -1.391,0.693 -2.952,1.042 -4.688,1.042 v 0 z"
                 style="fill:url(#linearGradient1226);stroke:none"
                 id="path1228" />
            </g>
          </g>
        </g>
      </g>
      <g
         id="g1230">
        <g
           id="g1232"
           clip-path="url(#clipPath1236)">
          <g
             id="g1238">
            <g
               id="g1240">
              <path
                 d="m 599.158,229.792 v -26.955 h -9.766 v 26.955 h -7.814 v -55.341 h 7.814 v 20.573 h 9.766 v -20.573 h 7.812 v 55.341 z"
                 style="fill:url(#linearGradient1250);stroke:none"
                 id="path1252" />
            </g>
          </g>
        </g>
      </g>
      <g
         id="g1254">
        <g
           id="g1256"
           clip-path="url(#clipPath1260)">
          <g
             id="g1262">
            <g
               id="g1264">
              <path
                 d="m 652.014,231.049 c -1.515,0 -2.949,-0.303 -4.305,-0.909 v 0 l 0.031,-0.048 c -0.414,-0.143 -0.812,-0.335 -1.195,-0.542 v 0 c -0.685,-0.382 -1.308,-0.829 -1.882,-1.34 v 0 c -0.51,-0.446 -0.957,-0.94 -1.371,-1.498 v 0 c -0.893,-1.164 -1.562,-2.488 -1.993,-3.971 v 0 c -0.431,-1.466 -0.654,-2.981 -0.654,-4.543 v 0 -30.998 c 0,-1.739 0.303,-3.365 0.878,-4.88 v 0 c 0.589,-1.531 1.387,-2.854 2.406,-3.97 v 0 c 1.021,-1.132 2.248,-2.025 3.684,-2.678 v 0 c 0.176,-0.08 0.351,-0.16 0.526,-0.208 v 0 h 0.017 c 1.275,-0.526 2.662,-0.765 4.145,-0.765 v 0 h 3.189 c 1.514,0 2.949,0.302 4.304,0.908 v 0 l -0.03,0.049 c 0.414,0.143 0.813,0.334 1.195,0.541 v 0 c 0.686,0.383 1.308,0.83 1.882,1.341 v 0 c 0.509,0.445 0.973,0.94 1.387,1.482 v 0 c 0.876,1.18 1.546,2.504 1.977,3.971 v 0 c 0.43,1.482 0.654,2.997 0.654,4.559 v 0 30.998 c 0,1.738 -0.287,3.364 -0.877,4.88 v 0 c -0.59,1.514 -1.387,2.837 -2.408,3.97 v 0 c -1.02,1.132 -2.248,2.025 -3.683,2.663 v 0 c -0.112,0.047 -0.207,0.095 -0.319,0.127 v 0 c -0.112,0.063 -0.239,0.096 -0.352,0.127 v 0 c -1.243,0.494 -2.583,0.734 -4.017,0.734 v 0 z m -2.71,-46.783 c -0.272,0.399 -0.496,0.845 -0.639,1.324 v 0 c -0.015,0 -0.015,0.015 -0.015,0.031 v 0 c -0.128,0.494 -0.192,1.021 -0.192,1.579 v 0 30.998 c 0,1.339 0.335,2.455 0.973,3.348 v 0 c 0.654,0.893 1.658,1.339 2.998,1.339 v 0 h 2.742 c 1.388,0 2.391,-0.478 3.03,-1.403 v 0 c 0.303,-0.463 0.525,-0.957 0.685,-1.483 v 0 c 0.112,-0.462 0.16,-0.957 0.16,-1.451 v 0 -30.998 c 0,-1.339 -0.32,-2.455 -0.973,-3.348 v 0 c -0.655,-0.893 -1.658,-1.339 -2.998,-1.339 v 0 h -2.742 c -1.387,0 -2.392,0.463 -3.029,1.403"
                 style="fill:url(#linearGradient1274);stroke:none"
                 id="path1276" />
            </g>
          </g>
        </g>
      </g>
      <g
         id="g1278">
        <g
           id="g1280"
           clip-path="url(#clipPath1284)">
          <g
             id="g1286">
            <g
               id="g1288">
              <path
                 d="m 623.025,230.476 c -1.515,0 -2.948,-0.304 -4.305,-0.91 v 0 l 0.032,-0.048 c -0.414,-0.143 -0.813,-0.335 -1.195,-0.542 v 0 c -0.686,-0.382 -1.308,-0.829 -1.882,-1.339 v 0 c -0.51,-0.447 -0.957,-0.941 -1.371,-1.499 v 0 c -0.893,-1.164 -1.562,-2.487 -1.994,-3.97 v 0 c -0.43,-1.467 -0.653,-2.982 -0.653,-4.544 v 0 -30.998 c 0,-1.738 0.302,-3.364 0.878,-4.879 v 0 c 0.589,-1.531 1.386,-2.855 2.406,-3.971 v 0 c 1.021,-1.132 2.248,-2.025 3.684,-2.678 v 0 c 0.174,-0.08 0.351,-0.16 0.526,-0.207 v 0 h 0.016 c 1.275,-0.527 2.663,-0.766 4.145,-0.766 v 0 h 3.19 c 1.514,0 2.949,0.303 4.304,0.909 v 0 l -0.03,0.047 c 0.414,0.144 0.812,0.335 1.195,0.542 v 0 c 0.685,0.384 1.308,0.83 1.882,1.34 v 0 c 0.509,0.446 0.972,0.941 1.386,1.483 v 0 c 0.877,1.18 1.547,2.503 1.978,3.971 v 0 c 0.43,1.482 0.654,2.997 0.654,4.56 v 0 30.997 c 0,1.738 -0.287,3.365 -0.878,4.88 v 0 c -0.589,1.514 -1.387,2.837 -2.407,3.969 v 0 c -1.02,1.133 -2.248,2.025 -3.683,2.663 v 0 c -0.112,0.048 -0.207,0.096 -0.319,0.128 v 0 c -0.112,0.064 -0.239,0.096 -0.352,0.127 v 0 c -1.243,0.495 -2.583,0.735 -4.017,0.735 v 0 z m -2.71,-46.784 c -0.271,0.398 -0.495,0.845 -0.638,1.324 v 0 c -0.016,0 -0.016,0.015 -0.016,0.031 v 0 c -0.128,0.494 -0.191,1.021 -0.191,1.579 v 0 30.998 c 0,1.339 0.335,2.455 0.972,3.348 v 0 c 0.654,0.892 1.659,1.339 2.999,1.339 v 0 h 2.741 c 1.388,0 2.392,-0.478 3.03,-1.403 v 0 c 0.304,-0.463 0.526,-0.957 0.686,-1.484 v 0 c 0.112,-0.461 0.16,-0.955 0.16,-1.45 v 0 -30.997 c 0,-1.339 -0.32,-2.456 -0.973,-3.349 v 0 c -0.655,-0.893 -1.658,-1.339 -2.998,-1.339 v 0 h -2.743 c -1.387,0 -2.391,0.462 -3.029,1.403"
                 style="fill:url(#linearGradient1298);stroke:none"
                 id="path1300" />
            </g>
          </g>
        </g>
      </g>
      <g
         id="g1302">
        <g
           id="g1304"
           clip-path="url(#clipPath1308)">
          <g
             id="g1310">
            <g
               id="g1312">
              <path
                 d="m 669.178,229.792 v -7.814 h 9.178 v -47.527 h 7.814 v 47.527 h 9.245 v 7.814 z"
                 style="fill:url(#linearGradient1322);stroke:none"
                 id="path1324" />
            </g>
          </g>
        </g>
      </g>
      <g
         id="g1326">
        <g
           id="g1328"
           clip-path="url(#clipPath1332)">
          <g
             id="g1334">
            <g
               id="g1336">
              <path
                 d="m 700.622,229.792 v -55.341 h 20.053 v 7.812 h -12.239 v 15.691 h 12.239 v 7.812 h -12.239 v 16.212 h 12.239 v 7.814 z"
                 style="fill:url(#linearGradient1346);stroke:none"
                 id="path1348" />
            </g>
          </g>
        </g>
      </g>
      <g
         id="g1350">
        <g
           id="g1352"
           clip-path="url(#clipPath1356)">
          <g
             id="g1358">
            <g
               id="g1360">
              <path
                 d="m 727.446,229.792 v -55.341 h 7.813 v 18.88 h 4.883 0.455 l 4.949,-18.88 h 7.812 l -5.664,21.614 c 1.345,1.173 2.386,2.606 3.126,4.298 v 0 c 0.737,1.692 1.107,3.516 1.107,5.469 v 0 11.459 c 0,1.648 -0.273,3.232 -0.815,4.753 v 0 c -0.543,1.519 -1.325,2.853 -2.344,4.004 v 0 c -1.02,1.15 -2.257,2.06 -3.711,2.735 v 0 c -1.455,0.671 -3.093,1.009 -4.915,1.009 v 0 z m 7.813,-7.814 h 4.883 c 1.389,0 2.398,-0.446 3.027,-1.335 v 0 c 0.629,-0.889 0.945,-2.007 0.945,-3.352 v 0 -11.459 c 0,-1.346 -0.316,-2.464 -0.945,-3.353 v 0 c -0.629,-0.891 -1.638,-1.334 -3.027,-1.334 v 0 h -4.883 z"
                 style="fill:url(#linearGradient1370);stroke:none"
                 id="path1372" />
            </g>
          </g>
        </g>
      </g>
      <g
         id="g1374">
        <g
           id="g1376"
           clip-path="url(#clipPath1380)">
          <g
             id="g1382">
            <g
               id="g1384">
              <path
                 d="m 770.416,230.117 c -1.738,0 -3.32,-0.325 -4.753,-0.976 v 0 c -1.433,-0.65 -2.669,-1.528 -3.711,-2.632 v 0 c -1.042,-1.107 -1.845,-2.43 -2.41,-3.968 v 0 c -0.565,-1.538 -0.846,-3.175 -0.846,-4.908 v 0 -5.917 c 0,-1.733 0.293,-3.24 0.879,-4.519 v 0 c 0.586,-1.278 1.345,-2.416 2.279,-3.414 v 0 c 0.933,-0.996 1.986,-1.863 3.158,-2.6 v 0 c 1.171,-0.736 2.343,-1.431 3.515,-2.08 v 0 c 2.301,-1.258 4.08,-2.471 5.339,-3.642 v 0 c 1.259,-1.171 1.931,-2.471 2.019,-3.9 v 0 -4.876 c 0,-1.258 -0.315,-2.353 -0.945,-3.284 v 0 c -0.629,-0.932 -1.639,-1.398 -3.027,-1.398 v 0 h -1.433 c -1.345,0 -2.344,0.445 -2.995,1.334 v 0 c -0.651,0.889 -0.977,2.007 -0.977,3.354 v 0 4.818 h -7.812 v -4.818 c 0,-1.432 0.228,-2.89 0.684,-4.371 v 0 c 0.456,-1.48 1.117,-2.824 1.986,-4.026 v 0 c 0.867,-1.204 1.942,-2.19 3.222,-2.956 v 0 c 1.28,-0.766 2.767,-1.148 4.46,-1.148 v 0 h 4.298 c 1.561,0 2.983,0.359 4.264,1.075 v 0 c 1.28,0.716 2.376,1.66 3.288,2.831 v 0 c 0.911,1.172 1.605,2.507 2.083,4.005 v 0 c 0.478,1.498 0.717,3.005 0.717,4.525 v 0 5.403 c 0,1.824 -0.358,3.429 -1.075,4.818 v 0 c -0.716,1.389 -1.607,2.637 -2.67,3.743 v 0 c -1.063,1.107 -2.246,2.073 -3.547,2.898 v 0 c -1.304,0.824 -2.563,1.606 -3.777,2.344 v 0 c -0.739,0.433 -1.476,0.856 -2.213,1.269 v 0 c -0.74,0.412 -1.4,0.889 -1.986,1.433 v 0 c -0.586,0.543 -1.053,1.171 -1.4,1.888 v 0 c -0.349,0.716 -0.522,1.616 -0.522,2.702 v 0 4.492 c 0,1.129 0.261,2.159 0.783,3.093 v 0 c 0.521,0.932 1.453,1.465 2.798,1.595 v 0 h 2.15 c 1.258,-0.088 2.18,-0.575 2.767,-1.465 v 0 c 0.586,-0.89 0.879,-1.965 0.879,-3.223 v 0 -5.209 h 7.813 v 5.209 c 0,1.605 -0.251,3.167 -0.75,4.688 v 0 c -0.5,1.519 -1.237,2.854 -2.212,4.005 v 0 c -0.978,1.148 -2.16,2.071 -3.549,2.766 v 0 c -1.39,0.693 -2.953,1.042 -4.688,1.042 v 0 z"
                 style="fill:url(#linearGradient1394);stroke:none"
                 id="path1396" />
            </g>
          </g>
        </g>
      </g>
      <g
         id="g1398">
        <g
           id="g1400"
           clip-path="url(#clipPath1404)">
          <g
             id="g1406">
            <g
               id="g1408">
              <path
                 d="m 360.257,229.078 v -55.34 h 12.697 c 1.734,0 3.32,0.325 4.752,0.975 v 0 c 1.432,0.651 2.668,1.531 3.712,2.638 v 0 c 1.04,1.106 1.856,2.419 2.442,3.938 v 0 c 0.585,1.52 0.877,3.169 0.877,4.949 v 0 30.339 c 0,1.65 -0.271,3.234 -0.812,4.753 v 0 c -0.545,1.52 -1.327,2.855 -2.345,4.005 v 0 c -1.021,1.149 -2.258,2.06 -3.712,2.734 v 0 c -1.455,0.671 -3.093,1.009 -4.914,1.009 v 0 z m 7.813,-7.814 h 4.884 c 1.388,0 2.397,-0.445 3.026,-1.335 v 0 c 0.629,-0.889 0.944,-2.006 0.944,-3.352 v 0 -30.339 c 0,-1.26 -0.315,-2.356 -0.944,-3.289 v 0 c -0.629,-0.932 -1.638,-1.399 -3.026,-1.399 v 0 h -4.884 z"
                 style="fill:url(#linearGradient1418);stroke:none"
                 id="path1420" />
            </g>
          </g>
        </g>
      </g>
      <g
         id="g1422">
        <g
           id="g1424"
           clip-path="url(#clipPath1428)">
          <g
             id="g1430">
            <g
               id="g1432">
              <path
                 d="m 391.378,229.078 v -55.34 h 20.052 v 7.812 h -12.239 v 15.69 h 12.239 v 7.813 h -12.239 v 16.211 h 12.239 v 7.814 z"
                 style="fill:url(#linearGradient1442);stroke:none"
                 id="path1444" />
            </g>
          </g>
        </g>
      </g>
      <g
         id="g1446">
        <g
           id="g1448"
           clip-path="url(#clipPath1452)">
          <g
             id="g1454">
            <g
               id="g1456">
              <path
                 d="m 429.269,229.404 c -1.737,0 -3.32,-0.326 -4.752,-0.977 v 0 c -1.433,-0.649 -2.669,-1.527 -3.711,-2.631 v 0 c -1.042,-1.107 -1.845,-2.429 -2.409,-3.968 v 0 c -0.565,-1.539 -0.847,-3.175 -0.847,-4.908 v 0 -5.917 c 0,-1.733 0.293,-3.241 0.88,-4.519 v 0 c 0.585,-1.279 1.343,-2.416 2.278,-3.413 v 0 c 0.933,-0.997 1.985,-1.864 3.158,-2.6 v 0 c 1.172,-0.737 2.343,-1.432 3.516,-2.081 v 0 c 2.3,-1.258 4.078,-2.472 5.338,-3.643 v 0 c 1.258,-1.171 1.93,-2.47 2.018,-3.899 v 0 -4.877 c 0,-1.258 -0.314,-2.352 -0.944,-3.284 v 0 c -0.629,-0.932 -1.637,-1.398 -3.027,-1.398 v 0 h -1.433 c -1.344,0 -2.343,0.446 -2.994,1.334 v 0 c -0.651,0.89 -0.977,2.008 -0.977,3.355 v 0 4.818 h -7.813 v -4.818 c 0,-1.432 0.229,-2.89 0.684,-4.371 v 0 c 0.456,-1.481 1.117,-2.825 1.985,-4.027 v 0 c 0.868,-1.203 1.943,-2.189 3.224,-2.956 v 0 c 1.28,-0.766 2.766,-1.147 4.458,-1.147 v 0 h 4.299 c 1.561,0 2.983,0.359 4.263,1.075 v 0 c 1.28,0.716 2.378,1.66 3.289,2.831 v 0 c 0.911,1.172 1.605,2.507 2.083,4.004 v 0 c 0.476,1.498 0.717,3.006 0.717,4.526 v 0 5.403 c 0,1.823 -0.359,3.429 -1.075,4.818 v 0 c -0.716,1.389 -1.607,2.637 -2.668,3.743 v 0 c -1.066,1.107 -2.248,2.073 -3.55,2.898 v 0 c -1.302,0.824 -2.561,1.605 -3.776,2.343 v 0 c -0.738,0.433 -1.476,0.857 -2.214,1.269 v 0 c -0.738,0.413 -1.4,0.889 -1.985,1.433 v 0 c -0.586,0.543 -1.053,1.173 -1.4,1.889 v 0 c -0.348,0.715 -0.521,1.616 -0.521,2.702 v 0 4.492 c 0,1.129 0.261,2.158 0.781,3.092 v 0 c 0.522,0.933 1.454,1.465 2.8,1.595 v 0 h 2.148 c 1.259,-0.087 2.181,-0.574 2.767,-1.464 v 0 c 0.585,-0.89 0.879,-1.965 0.879,-3.223 v 0 -5.209 h 7.814 v 5.209 c 0,1.605 -0.251,3.167 -0.749,4.687 v 0 c -0.501,1.519 -1.237,2.854 -2.214,4.005 v 0 c -0.978,1.149 -2.16,2.073 -3.548,2.766 v 0 c -1.391,0.694 -2.952,1.043 -4.688,1.043 v 0 z"
                 style="fill:url(#linearGradient1466);stroke:none"
                 id="path1468" />
            </g>
          </g>
        </g>
      </g>
      <g
         id="g1470">
        <g
           id="g1472"
           clip-path="url(#clipPath1476)">
          <g
             id="g1478">
            <g
               id="g1480">
              <path
                 d="m 448.671,229.078 v -55.34 h 20.053 v 7.812 h -12.24 v 15.69 h 12.24 v 7.813 h -12.24 v 16.211 h 12.24 v 7.814 z"
                 style="fill:url(#linearGradient1490);stroke:none"
                 id="path1492" />
            </g>
          </g>
        </g>
      </g>
      <g
         id="g1494">
        <g
           id="g1496"
           clip-path="url(#clipPath1500)">
          <g
             id="g1502">
            <g
               id="g1504">
              <path
                 d="m 475.493,229.078 v -55.34 h 7.813 v 18.88 h 4.883 0.455 l 4.949,-18.88 h 7.812 l -5.663,21.614 c 1.344,1.173 2.386,2.605 3.125,4.298 v 0 c 0.737,1.693 1.106,3.516 1.106,5.468 v 0 11.459 c 0,1.65 -0.271,3.234 -0.813,4.753 v 0 c -0.543,1.52 -1.325,2.855 -2.345,4.005 v 0 c -1.02,1.149 -2.256,2.06 -3.71,2.734 v 0 c -1.455,0.671 -3.094,1.009 -4.916,1.009 v 0 z m 7.813,-7.814 h 4.883 c 1.388,0 2.397,-0.445 3.027,-1.335 v 0 c 0.629,-0.889 0.944,-2.006 0.944,-3.352 v 0 -11.459 c 0,-1.345 -0.315,-2.463 -0.944,-3.352 v 0 c -0.63,-0.89 -1.639,-1.335 -3.027,-1.335 v 0 h -4.883 z"
                 style="fill:url(#linearGradient1514);stroke:none"
                 id="path1516" />
            </g>
          </g>
        </g>
      </g>
      <g
         id="g1518">
        <g
           id="g1520"
           clip-path="url(#clipPath1524)">
          <g
             id="g1526">
            <g
               id="g1528">
              <path
                 d="m 505.834,229.078 v -7.814 h 9.179 v -47.526 h 7.814 v 47.526 h 9.245 v 7.814 z"
                 style="fill:url(#linearGradient1538);stroke:none"
                 id="path1540" />
            </g>
          </g>
        </g>
      </g>
    </g>
  </g>
</svg>
